<svg width="40" height="40" viewBox="0 0 220 220" fill="none" xmlns="http://www.w3.org/2000/svg">
<path d="M220 110C220 170.751 170.751 220 110 220C49.2487 220 0 170.751 0 110C0 49.2487 49.2487 9.53674e-06 110 9.53674e-06C170.751 9.53674e-06 220 49.2487 220 110ZM17.6 110C17.6 161.031 58.9689 202.4 110 202.4C161.031 202.4 202.4 161.031 202.4 110C202.4 58.9689 161.031 17.6 110 17.6C58.9689 17.6 17.6 58.9689 17.6 110Z" fill="url(#paint0_radial)"/>
<defs>
<radialGradient id="paint0_radial" cx="0" cy="0" r="1" gradientUnits="userSpaceOnUse" gradientTransform="translate(110 110) rotate(90) scale(110)">
<stop stop-color="#E9E9FF"/>
<stop offset="0.0001" stop-color="white" stop-opacity="0.984375"/>
<stop offset="0.9999" stop-color="#5B5FDD"/>
<stop offset="1" stop-color="#E9E9FF" stop-opacity="0"/>
</radialGradient>
</defs>
</svg>
