<svg fill="#5B5FDD" id="Capa_1" enable-background="new 0 0 512 512" height="480" viewBox="0 0 512 512" width="480" xmlns="http://www.w3.org/2000/svg"><g><g><path d="m163.522 331.25c-37.789 0-51.662-36.255-60.249-71.72-1.083-4.47-.054-9.19 2.79-12.805s7.189-5.725 11.789-5.725h91.34c4.6 0 8.945 2.11 11.789 5.725s3.873 8.334 2.79 12.805c-8.587 35.465-22.46 71.72-60.249 71.72zm-25.847-60.25c10.135 30.252 20.101 30.25 25.848 30.25s15.713.002 25.848-30.25z"/></g><g><path d="m220.102 210.75h-113.16c-7.46 0-13.787-5.483-14.848-12.868-1.306-9.095-2.633-19.038-4.056-30.398-8.492-67.903-.347-116.435 24.208-144.251 13.417-15.199 31.148-23.233 51.276-23.233s37.859 8.034 51.276 23.233c24.555 27.816 32.7 76.349 24.208 144.249v.002c-1.419 11.332-2.746 21.276-4.056 30.398-1.06 7.385-7.387 12.868-14.848 12.868zm-100.097-30h87.034c.714-5.318 1.443-10.953 2.199-16.994 7.169-57.324 1.156-100.18-16.931-120.67-7.665-8.683-17.35-13.086-28.785-13.086s-21.12 4.403-28.785 13.086c-18.087 20.49-24.1 63.346-16.931 120.672.758 6.047 1.487 11.682 2.199 16.992z"/></g><g><path d="m348.477 512c-37.789 0-51.662-36.255-60.249-71.72-1.083-4.47-.054-9.19 2.79-12.805s7.189-5.725 11.789-5.725h91.34c4.6 0 8.945 2.11 11.789 5.725s3.873 8.334 2.79 12.805c-8.586 35.465-22.459 71.72-60.249 71.72zm-25.847-60.25c10.135 30.252 20.101 30.25 25.848 30.25s15.713.002 25.848-30.25z"/></g><g><path d="m405.058 391.5h-113.16c-7.46 0-13.787-5.483-14.848-12.868-1.311-9.123-2.637-19.066-4.056-30.398-8.492-67.902-.347-116.435 24.208-144.251 13.417-15.199 31.147-23.233 51.276-23.233s37.859 8.034 51.276 23.233c24.555 27.816 32.7 76.349 24.208 144.249v.003c-1.423 11.36-2.75 21.303-4.056 30.398-1.061 7.384-7.388 12.867-14.848 12.867zm-100.098-30h87.034c.712-5.311 1.442-10.946 2.199-16.994 7.169-57.324 1.156-100.18-16.931-120.669-7.666-8.684-17.35-13.086-28.785-13.086s-21.12 4.403-28.785 13.086c-18.087 20.49-24.1 63.346-16.931 120.672.756 6.039 1.485 11.674 2.199 16.991z"/></g></g></svg>